<svg xmlns="http://www.w3.org/2000/svg" width="23" height="25" viewBox="0 0 23 25" fill="none">
<g clip-path="url(#clip0_16_181)">
<path d="M19.4404 7.49308C19.6295 7.49308 19.7928 7.61108 19.8645 7.77791L22.9482 12.6526C22.9881 12.7299 23.004 12.8133 22.998 12.8927L22.793 24.528C22.793 24.7864 22.5879 24.998 22.3331 24.998V25H0.706743C0.451917 25 0.244871 24.7884 0.244871 24.528L0 12.8703V12.8662V12.8621V12.8581V12.854V12.8499V12.8479V12.8438V12.8377V12.8357V12.8276V12.8255V12.8235V12.8153V12.8133V12.8113L0.00199082 12.8031V12.7991L0.00398165 12.7909L0.00597247 12.7828V12.7787L0.0079633 12.7706L0.00995412 12.7665V12.7625V12.7584V12.7563V12.7543L0.0119449 12.7502L0.0139358 12.7462V12.7441V12.7421L0.0159266 12.738L0.0199082 12.736V12.734V12.7319L0.0218991 12.7279V12.7258L0.0238899 12.7197L0.0258807 12.7157L0.0278715 12.7116L0.0298624 12.7075L0.0318532 12.7035L0.033844 12.6994L0.0358348 12.6953L0.0378257 12.6912L0.0418073 12.6831L0.0437981 12.679L0.0477798 12.6729L0.0497706 12.6689L0.0517614 12.6668V12.6648L0.0537523 12.6607L0.0557431 12.6567L0.0577339 12.6526L0.0597248 12.6485L0.0637064 12.6424L0.0656972 12.6383L0.0696789 12.6322L0.0716697 12.6282L0.0736605 12.6241L0.0756513 12.62L3.20125 7.73926C3.28287 7.58057 3.44413 7.48901 3.60937 7.48901V7.48698H9.79088L13.3704 0L19.2373 2.68351L16.9718 7.49308H19.4404ZM9.33299 8.43709H3.87813L1.22436 12.4023H21.7856L19.1617 8.43506H16.5298L15.835 9.91211H16.3447C16.5995 9.91211 16.8065 10.1237 16.8065 10.3841C16.8065 10.6445 16.5995 10.8561 16.3447 10.8561H7.3342C7.07937 10.8561 6.87233 10.6445 6.87233 10.3841C6.87233 10.1237 7.07937 9.91211 7.3342 9.91618H8.11062H8.62425L9.33299 8.43709ZM14.7401 9.91414L17.4675 4.09953C17.0096 3.87166 16.8205 3.30404 17.0435 2.8361L14.5748 1.8514C14.3519 2.31934 13.7964 2.51261 13.3385 2.28475L9.82273 9.62931C9.9601 9.69849 10.0736 9.79818 10.1592 9.91618C11.6443 9.91414 13.2907 9.91414 14.7401 9.91414ZM12.2953 6.37817C12.6517 5.63355 13.5277 5.32633 14.2563 5.69051C14.9849 6.05469 15.2856 6.94987 14.9292 7.6945C14.5728 8.43913 13.6969 8.74634 12.9682 8.38216C12.2396 8.02002 11.939 7.1228 12.2953 6.37817ZM0.921752 13.3443L1.16662 24.056H21.8732L22.0802 13.3443H0.921752Z" fill="#ffffff"/>
</g>
<defs fill="#000000">
<clipPath id="clip0_16_181" fill="#000000">
<rect width="23" height="25" fill="#ffffff"/>
</clipPath>
</defs>
</svg>