<svg width="26" height="29" viewBox="0 0 26 29" fill="none" xmlns="http://www.w3.org/2000/svg">
<g clip-path="url(#clip0_16_192)">
<path d="M11.2916 13.02C11.5619 12.9453 11.8477 12.9395 12.121 13.0032C12.3943 13.0669 12.6457 13.198 12.8503 13.3834C12.9969 13.5173 13.1146 13.6777 13.1964 13.8554C13.2751 14.0322 13.316 14.2224 13.3167 14.4147V21.4358L13.2554 22.4601C13.1917 22.8178 13.0734 23.1646 12.9043 23.489C12.7085 23.8619 12.4506 24.2015 12.1409 24.4944V28.9997H11.0781V24.8225C11.0781 24.1381 11.1002 24.1145 11.3113 23.9941C11.4861 23.8885 11.6365 23.7496 11.7531 23.5858C11.9554 23.3357 12.113 23.0549 12.2195 22.7551C12.3272 22.4568 12.382 22.1433 12.3815 21.8276C12.3815 19.359 12.3815 16.8896 12.3815 14.4195C12.382 14.345 12.367 14.2711 12.3373 14.2023C12.3045 14.1295 12.2569 14.0637 12.1974 14.0088C12.138 13.9549 12.069 13.9117 11.9937 13.8814C11.8357 13.8228 11.6607 13.8228 11.5027 13.8814C11.4233 13.9093 11.3512 13.9536 11.2916 14.0112C11.2337 14.0665 11.1863 14.1312 11.1517 14.2023C11.1212 14.2726 11.1054 14.348 11.1051 14.4242V17.0273C11.1044 17.0628 11.0895 17.0966 11.0634 17.1217C11.0373 17.1468 11.0021 17.1612 10.9651 17.1618H10.295C10.2577 17.1618 10.2218 17.1477 10.1952 17.1226C10.1686 17.0974 10.1533 17.0632 10.1526 17.0273V12.9515C10.1536 12.8752 10.1377 12.7996 10.106 12.7297C10.0738 12.6573 10.0261 12.5922 9.96609 12.5385C9.90525 12.4835 9.83456 12.4395 9.75744 12.4087C9.67923 12.3792 9.59598 12.364 9.51197 12.3639C9.42798 12.3642 9.34477 12.3794 9.2665 12.4087C9.18802 12.4384 9.11631 12.4825 9.0554 12.5385C8.99743 12.5938 8.95007 12.6586 8.91548 12.7297C8.88501 12.8 8.86917 12.8754 8.86884 12.9515V17.0273C8.86821 17.0628 8.85327 17.0966 8.82716 17.1217C8.80106 17.1468 8.76584 17.1612 8.72893 17.1618H8.0318C7.99489 17.1612 7.95966 17.1468 7.93356 17.1217C7.90745 17.0966 7.89251 17.0628 7.89188 17.0273V11.578C7.89146 11.5036 7.87647 11.4299 7.84769 11.3609C7.81496 11.2887 7.76736 11.2237 7.70778 11.1697C7.64731 11.1131 7.57549 11.0689 7.49668 11.0399C7.4188 11.0093 7.33533 10.9941 7.25121 10.9951C7.16729 10.9938 7.08391 11.0082 7.00574 11.0375C6.92738 11.0661 6.85625 11.1103 6.79709 11.1673C6.73744 11.2196 6.68998 11.2835 6.65783 11.3547C6.62567 11.4258 6.60956 11.5028 6.61053 11.5804V17.032C6.60989 17.0679 6.59461 17.1021 6.56798 17.1273C6.54135 17.1524 6.5055 17.1665 6.46816 17.1665H5.78822C5.7513 17.1659 5.71608 17.1516 5.68998 17.1265C5.66387 17.1014 5.64893 17.0675 5.6483 17.032V12.9657C5.64823 12.8895 5.63238 12.8141 5.60166 12.7438C5.56803 12.6722 5.52055 12.6073 5.46174 12.5527C5.40168 12.4956 5.32974 12.4514 5.25064 12.4229C5.17243 12.3934 5.08918 12.3782 5.00517 12.378C4.9212 12.3786 4.83804 12.3938 4.7597 12.4229C4.68384 12.4512 4.61458 12.4937 4.55596 12.548C4.49542 12.6025 4.44844 12.6695 4.4185 12.7438C4.38685 12.8138 4.37095 12.8894 4.37186 12.9657C4.37186 13.9522 4.37186 15.0567 4.37186 16.1588C4.37186 17.1311 4.37186 18.1011 4.37186 19.3401C4.35714 19.5549 4.4455 21.2423 3.63546 20.7089C3.53158 20.649 3.43232 20.582 3.33844 20.5083C3.22307 20.4187 3.10525 20.3195 2.98988 20.2228C2.74441 20.0104 2.48667 19.7744 2.39094 19.6847C2.2349 19.5368 2.04728 19.4232 1.84109 19.3519C1.75747 19.3144 1.66635 19.2949 1.57408 19.2948C1.48182 19.2947 1.39064 19.314 1.30694 19.3513C1.22324 19.3886 1.14903 19.4431 1.0895 19.5109C1.02997 19.5786 0.98656 19.6581 0.96231 19.7437C0.914667 19.9297 0.939099 20.126 1.03104 20.2959C1.18569 20.624 1.6398 20.9874 1.91473 21.2399C2.65113 21.9479 4.03557 23.2766 5.10581 24.0248L5.13772 24.0507C5.21026 24.1329 5.27592 24.2205 5.3341 24.3127C5.3904 24.406 5.43804 24.504 5.47647 24.6053C5.50915 24.6916 5.53219 24.781 5.5452 24.872C5.55985 24.9641 5.56561 25.0574 5.56239 25.1505V28.9973H4.48232V24.78C3.471 24.072 2.30993 22.9108 1.5097 22.1202C1.06295 21.6718 0.375641 21.1219 0.137536 20.5603C-0.00589462 20.2386 -0.0377419 19.8811 0.046713 19.5407C0.078301 19.4192 0.125292 19.3019 0.18663 19.1914C0.248418 19.0786 0.325151 18.9738 0.414915 18.8799C0.504853 18.7884 0.60724 18.709 0.719296 18.6439C0.832938 18.5788 0.95402 18.5265 1.08013 18.4881C1.40625 18.3973 1.75304 18.4014 2.07674 18.4999C2.43011 18.6106 2.75136 18.7998 3.01442 19.0522L3.24516 19.2646L3.3949 19.3991V19.3519C3.3949 19.2929 3.3949 19.2363 3.3949 19.1749C3.3949 19.1136 3.40717 19.0687 3.41454 19.0097V12.9657C3.41531 12.7734 3.45621 12.5832 3.53482 12.4064C3.61671 12.2286 3.73434 12.0682 3.88093 11.9344C4.02811 11.7975 4.20263 11.6907 4.39396 11.6205C4.5842 11.5464 4.78765 11.5087 4.9929 11.5096C5.14905 11.5102 5.30435 11.5317 5.45438 11.5733C5.52491 11.5927 5.59383 11.6171 5.66057 11.6464V11.578C5.66151 11.3831 5.70429 11.1905 5.78623 11.0122C5.86818 10.8339 5.98751 10.6738 6.13678 10.5419C6.284 10.4056 6.45742 10.2982 6.64735 10.2257C6.83971 10.1529 7.0445 10.1153 7.25121 10.1148C7.45716 10.1149 7.66123 10.1525 7.8526 10.2257C8.04235 10.3 8.21626 10.4072 8.36563 10.5419C8.51199 10.6755 8.62887 10.836 8.70929 11.0139C8.78986 11.1903 8.83164 11.3807 8.83202 11.5733V11.6299C8.90016 11.6013 8.9698 11.5761 9.04067 11.5544C9.19338 11.5093 9.35221 11.4862 9.51197 11.486C9.71788 11.4865 9.92186 11.5241 10.1134 11.5969C10.3027 11.6694 10.476 11.776 10.6239 11.9108C10.7705 12.0446 10.8882 12.205 10.9701 12.3828C11.0487 12.5596 11.0896 12.7498 11.0903 12.9421V13.0766C11.1547 13.053 11.2202 13.0325 11.2867 13.0152L11.2916 13.02ZM23.9701 2.90254C24.1156 2.86379 24.2658 2.84394 24.4168 2.84354C24.6229 2.84247 24.8272 2.88015 25.0182 2.95446C25.2074 3.02728 25.3806 3.13377 25.5288 3.26834C25.6746 3.40235 25.7914 3.56276 25.8724 3.74035C25.951 3.91717 25.9919 4.10737 25.9927 4.29967V11.3184L25.9338 12.3426C25.8693 12.7005 25.7502 13.0472 25.5803 13.3716C25.3855 13.745 25.1275 14.0848 24.8169 14.377V29.0091H23.7614V14.7074C23.7614 14.023 23.7835 13.9994 24.0069 13.879C24.1823 13.7742 24.3328 13.6351 24.4487 13.4707C24.6509 13.2201 24.8092 12.9396 24.9176 12.64C25.0241 12.3415 25.078 12.0281 25.0771 11.7125C25.0771 9.24393 25.0771 6.77455 25.0771 4.30439C25.0765 4.23002 25.0615 4.1564 25.0329 4.08727C24.9984 4.01542 24.951 3.94993 24.893 3.89375C24.8345 3.83878 24.7653 3.79547 24.6893 3.76631C24.6111 3.7368 24.5278 3.7216 24.4438 3.72147C24.3598 3.72203 24.2767 3.73722 24.1983 3.76631C24.1197 3.79421 24.0484 3.83854 23.9897 3.89611C23.9297 3.94974 23.882 4.01486 23.8498 4.08727C23.8171 4.15698 23.8003 4.23264 23.8007 4.30911V6.91222C23.8007 6.9479 23.7859 6.98211 23.7597 7.00734C23.7335 7.03257 23.6979 7.04674 23.6608 7.04674H22.9784C22.9414 7.04614 22.9062 7.03177 22.8801 7.00667C22.854 6.98157 22.8391 6.94771 22.8384 6.91222V2.83174C22.8381 2.75557 22.8223 2.6802 22.7918 2.60989C22.7578 2.53842 22.7104 2.47361 22.6519 2.41873C22.5281 2.30565 22.3636 2.24306 22.1929 2.24409C22.1089 2.24465 22.0257 2.25984 21.9474 2.28893C21.8697 2.31863 21.7988 2.36274 21.7387 2.41873C21.6793 2.4728 21.6317 2.53781 21.5988 2.60989C21.5672 2.67985 21.5513 2.75545 21.5522 2.83174V6.91222C21.5515 6.94811 21.5363 6.98233 21.5096 7.00749C21.483 7.03265 21.4472 7.04675 21.4098 7.04674H20.7176C20.6803 7.04675 20.6444 7.03265 20.6178 7.00749C20.5912 6.98233 20.5759 6.94811 20.5752 6.91222V1.46292C20.576 1.38841 20.561 1.31453 20.531 1.2458C20.4994 1.17376 20.4516 1.10931 20.3911 1.057C20.2686 0.940882 20.1041 0.874905 19.9321 0.872915C19.8483 0.872563 19.7651 0.886961 19.6866 0.915395C19.6081 0.945046 19.5364 0.989137 19.4755 1.0452C19.4176 1.10051 19.3702 1.16523 19.3356 1.23636C19.3033 1.31108 19.2874 1.39144 19.289 1.47236V6.92402C19.2883 6.95951 19.2734 6.99337 19.2473 7.01847C19.2212 7.04357 19.186 7.05794 19.1491 7.05854H18.474C18.4556 7.05854 18.4374 7.05506 18.4205 7.0483C18.4035 7.04154 18.3881 7.03163 18.3751 7.01914C18.3621 7.00665 18.3518 6.99182 18.3448 6.9755C18.3377 6.95918 18.3341 6.94169 18.3341 6.92402V2.85062C18.3345 2.77414 18.3177 2.69848 18.285 2.62877C18.2532 2.55615 18.2054 2.49096 18.1451 2.43761C18.0859 2.38057 18.0148 2.33632 17.9364 2.30781C17.8586 2.27722 17.7751 2.26197 17.691 2.26297C17.6069 2.26216 17.5234 2.2774 17.4455 2.30781C17.3691 2.33501 17.2996 2.37766 17.2418 2.43289C17.1822 2.48778 17.1346 2.55358 17.1018 2.62641C17.0711 2.69665 17.0553 2.77206 17.0552 2.84826C17.0552 3.83475 17.0552 4.93924 17.0552 6.04137C17.0552 7.0137 17.0552 7.98367 17.0552 9.22269C17.0552 9.43745 17.1289 11.1249 16.3188 10.5915C16.2145 10.5321 16.1152 10.4651 16.0218 10.3909C15.9064 10.3012 15.7763 10.2021 15.6708 10.1053C15.4253 9.89293 15.1798 9.65693 15.0743 9.56725C14.9239 9.42337 14.7442 9.31089 14.5465 9.23685C14.463 9.19892 14.3718 9.1791 14.2794 9.17879C14.187 9.17848 14.0956 9.19769 14.0118 9.23506C13.928 9.27243 13.8537 9.32705 13.7943 9.39506C13.7348 9.46306 13.6916 9.54279 13.6677 9.62861C13.6256 9.80868 13.6499 9.99724 13.7365 10.162C13.8936 10.4924 14.3452 10.8558 14.6202 11.1201C15.3566 11.8282 16.7435 13.1568 17.8113 13.905C17.8239 13.9121 17.8354 13.9209 17.8456 13.9309C17.9181 14.0126 17.983 14.1003 18.0395 14.1929C18.1501 14.3632 18.2228 14.5536 18.2531 14.7522C18.2669 14.8444 18.2718 14.9376 18.2678 15.0307V28.9926H17.1681V14.6578C16.1568 13.9498 14.9933 12.7887 14.1931 11.9981C13.7463 11.5638 13.0614 11.0045 12.8209 10.4452C12.7195 10.2286 12.6714 9.99237 12.6804 9.75498C12.6893 9.51759 12.755 9.28538 12.8724 9.07636C12.9974 8.85565 13.1802 8.67016 13.4026 8.53828C13.5165 8.47361 13.6375 8.42137 13.7635 8.38252C14.0893 8.28823 14.4367 8.28823 14.7625 8.38252C15.1204 8.49566 15.4452 8.68899 15.71 8.94656L15.9555 9.15897L16.1028 9.29349V9.22741C16.0992 9.16846 16.0992 9.10935 16.1028 9.0504C16.1028 8.99612 16.1028 8.9442 16.12 8.8852V2.85062C16.1204 2.65803 16.1621 2.46761 16.2427 2.29129C16.3231 2.11336 16.44 1.95283 16.5864 1.81929C16.7294 1.68356 16.8987 1.57612 17.0847 1.50304C17.2755 1.42798 17.4798 1.3895 17.6861 1.38976C17.8414 1.39024 17.9959 1.41169 18.1451 1.45348C18.2157 1.47371 18.2846 1.49896 18.3513 1.529V1.46056C18.3517 1.26798 18.3934 1.07755 18.474 0.901235C18.5537 0.72292 18.6707 0.562259 18.8177 0.42923C18.9656 0.292023 19.1398 0.183809 19.3307 0.110626C19.6184 -0.00118505 19.9335 -0.0308215 20.2383 0.0252722C20.5431 0.0813658 20.8246 0.220807 21.049 0.42687C21.1962 0.55931 21.3135 0.719389 21.3937 0.897194C21.4739 1.075 21.5153 1.26675 21.5154 1.46056V1.5172C21.5835 1.48856 21.6531 1.46335 21.724 1.44168C21.8766 1.39578 22.0354 1.37192 22.1953 1.37088C22.4015 1.37062 22.6058 1.4091 22.7967 1.48416C22.9903 1.55565 23.1678 1.66221 23.3196 1.79804C23.4654 1.93205 23.5822 2.09246 23.6632 2.27005C23.7438 2.44637 23.7856 2.63679 23.7859 2.82938V2.9639C23.8449 2.94266 23.9111 2.91906 23.9799 2.90018L23.9701 2.90254Z" fill="white"/>
</g>
<defs>
<clipPath id="clip0_16_192">
<rect width="26" height="29" fill="white"/>
</clipPath>
</defs>
</svg>
