<svg width="35" height="21" viewBox="0 0 35 21" fill="none" xmlns="http://www.w3.org/2000/svg">
<g clip-path="url(#clip0_16_157)">
<path d="M15.0677 4.03383C14.6918 4.03383 14.3414 4.14557 14.048 4.34038V3.83329C14.048 3.31473 13.8373 2.84488 13.4983 2.50396C13.1594 2.16303 12.6923 1.95102 12.1767 1.95102H12.1739C11.7922 1.95102 11.4191 2.06849 11.1057 2.28909V1.8794C11.1057 1.36085 10.895 0.890996 10.556 0.550068C10.2228 0.212005 9.75564 0 9.2401 0C8.72456 0 8.25743 0.212005 7.91849 0.552933C7.57954 0.893861 7.36876 1.36371 7.36876 1.88226V2.29768C7.06969 2.09141 6.70795 1.97108 6.32059 1.97108C5.80504 1.97108 5.33792 2.18308 4.99897 2.52401C4.66002 2.86494 4.44925 3.33479 4.44925 3.85334V11.6975C4.42646 11.8523 4.41222 12.0098 4.41222 12.1674V12.6945L4.36665 12.6516C4.04479 12.3479 3.73148 12.0299 3.61185 11.9124C2.81432 11.1102 1.95413 10.9383 1.27338 11.1561C0.965767 11.2535 0.698025 11.4282 0.490101 11.6603C0.282173 11.8924 0.128365 12.1789 0.0543098 12.4997C-0.125134 13.2589 0.116974 14.2158 1.05692 15.0638L1.07116 15.0782L1.07401 15.081C2.182 16.2041 5.24393 19.7996 7.04691 20.5216C9.05496 21.3266 12.8916 21.1318 14.8627 19.8426C14.6861 19.6678 14.4696 19.4587 14.236 19.2352C12.4701 20.2752 9.03502 20.3984 7.36307 19.7308C5.75377 19.0862 2.49816 15.3102 1.68069 14.4794C1.66645 14.4651 1.65506 14.4507 1.63797 14.4364L1.35598 14.7573L1.63797 14.4393C0.957222 13.8319 0.769238 13.1873 0.886017 12.6974C0.928741 12.5198 1.01134 12.3622 1.12243 12.2362C1.23351 12.113 1.37592 12.0184 1.53543 11.9668C1.93989 11.8379 2.47537 11.9668 3.01655 12.5112C3.13903 12.6344 3.46943 12.9667 3.79129 13.2704C4.09321 13.5569 4.40652 13.8291 4.60875 13.9465C4.67711 13.9924 4.75971 14.0181 4.84232 14.0181L5.17842 13.852L5.27811 12.1674C5.27811 9.01596 5.30089 7.01337 5.30089 3.85334C5.30089 3.57258 5.41482 3.31473 5.59996 3.12851C5.7851 2.94229 6.0386 2.82769 6.32059 2.82769C6.59972 2.82769 6.85607 2.94229 7.04121 3.12851C7.22635 3.31473 7.34028 3.56971 7.34028 3.85334V10.2995H8.22041V1.88226C8.22041 1.6015 8.33434 1.34366 8.51948 1.15744C8.70462 0.971214 8.95812 0.856617 9.2401 0.856617C9.51924 0.856617 9.77558 0.971214 9.96072 1.15744C10.1459 1.34366 10.2598 1.59864 10.2598 1.88226V10.2995H11.1599V3.83329C11.1599 3.55252 11.2738 3.29468 11.4589 3.10846C11.6441 2.92224 11.8976 2.80764 12.1796 2.80764C12.4587 2.80764 12.715 2.92224 12.9002 3.10846C13.0853 3.29468 13.1992 3.55252 13.1992 3.83329V9.40559C13.4727 9.28527 13.7575 9.19072 14.0509 9.12769V5.9161C14.0509 5.63533 14.1648 5.37749 14.35 5.19127C14.5351 5.00505 14.7886 4.89045 15.0706 4.89045C15.3497 4.89045 15.6061 5.00505 15.7912 5.19127C15.9763 5.37749 16.0903 5.63533 16.0903 5.9161V9.15061C16.4121 9.2251 16.6913 9.32824 16.9419 9.4543V5.9161C16.9419 5.39754 16.7311 4.92769 16.3922 4.58677C16.0533 4.24584 15.5833 4.03383 15.0677 4.03383ZM17.6113 12.2161C16.902 11.4741 16.4064 10.8323 15.3155 10.7063C13.2676 10.4685 11.3849 12.5771 12.4188 14.6542C12.7122 15.2443 13.3132 15.9491 13.974 16.6396C14.7003 17.3959 15.5064 18.1379 16.0703 18.7023L17.6084 20.2379L18.8788 19.0089C20.4083 17.5277 22.9006 15.6626 22.9832 13.3535C23.0402 11.7348 21.7727 10.6977 20.3115 10.7177C19.0098 10.7349 18.4629 11.3853 17.6113 12.2161ZM19.9326 4.03383C20.3086 4.03383 20.659 4.14557 20.9523 4.34038V3.83329C20.9523 3.31473 21.1631 2.84488 21.5021 2.50396C21.841 2.16303 22.3081 1.95102 22.8237 1.95102H22.8265C23.2082 1.95102 23.5813 2.06849 23.8946 2.28909V1.8794C23.8946 1.36085 24.1054 0.890996 24.4444 0.550068C24.7776 0.212005 25.2476 0 25.7603 0C26.2758 0 26.743 0.212005 27.0819 0.552933C27.4208 0.893861 27.6316 1.36371 27.6316 1.88226V2.29768C27.9307 2.09427 28.2924 1.97108 28.6798 1.97108C29.1953 1.97108 29.6625 2.18308 30.0014 2.52401C30.3404 2.86494 30.5511 3.33479 30.5511 3.85334V11.6975C30.5739 11.8523 30.5882 12.0098 30.5882 12.1674V12.6945L30.6337 12.6516C30.9556 12.3479 31.2689 12.0299 31.3885 11.9124C32.1861 11.1102 33.0463 10.9383 33.727 11.1561C34.0346 11.2535 34.3024 11.4282 34.5103 11.6603C34.7182 11.8924 34.872 12.1789 34.9461 12.4997C35.1255 13.2589 34.8834 14.2158 33.9435 15.0638L33.9292 15.0782L33.9264 15.081C32.8184 16.2041 29.7565 19.7996 27.9535 20.5216C26.0024 21.3037 22.3224 21.1432 20.3058 19.9486C20.451 19.8139 20.6162 19.6621 20.7843 19.5074L20.9609 19.3441C22.7753 20.2809 26.0252 20.3754 27.6345 19.7308C29.2495 19.0862 32.5051 15.3102 33.3225 14.4794C33.3368 14.4651 33.3482 14.4507 33.3653 14.4364L33.6472 14.7573L33.3653 14.4393C34.046 13.8319 34.234 13.1873 34.1172 12.6974C34.0745 12.5198 33.9919 12.3622 33.8808 12.2362C33.7697 12.113 33.6273 12.0184 33.4678 11.9668C33.0633 11.8379 32.5279 11.9668 31.9867 12.5141C31.8642 12.6372 31.5338 12.9696 31.2119 13.2733C30.91 13.5598 30.5967 13.8319 30.3945 13.9494C30.3261 13.9952 30.2435 14.021 30.1609 14.021L29.8248 13.8548L29.7251 12.1703C29.7251 9.01883 29.7023 7.01623 29.7023 3.85621C29.7023 3.57544 29.5884 3.3176 29.4033 3.13138C29.2181 2.94516 28.9646 2.83056 28.6826 2.83056C28.4035 2.83056 28.1472 2.94516 27.962 3.13138C27.7769 3.3176 27.663 3.57258 27.663 3.85621V10.3023H26.7828V1.88226C26.7828 1.6015 26.6689 1.34366 26.4838 1.15744C26.2986 0.971214 26.0451 0.856617 25.7631 0.856617C25.484 0.856617 25.2277 0.971214 25.0425 1.15744C24.8574 1.34366 24.7434 1.59864 24.7434 1.88226V10.2995H23.8434V3.83329C23.8434 3.55252 23.7294 3.29468 23.5443 3.10846C23.3592 2.92224 23.1028 2.80764 22.8237 2.80764C22.5445 2.80764 22.2882 2.92224 22.1031 3.10846C21.9179 3.29468 21.804 3.55252 21.804 3.83329V9.28526C21.5305 9.19359 21.2457 9.12769 20.9523 9.09045V5.9161C20.9523 5.63533 20.8384 5.37749 20.6533 5.19127C20.4681 5.00505 20.2118 4.89045 19.9326 4.89045C19.6535 4.89045 19.3972 5.00505 19.212 5.19127C19.0269 5.37749 18.913 5.63533 18.913 5.9161C18.913 7.12224 18.913 8.20518 18.9101 9.24802C18.5911 9.34543 18.312 9.47435 18.0585 9.63192V5.9161C18.0585 5.39754 18.2692 4.92769 18.6082 4.58677C18.9471 4.24584 19.4171 4.03383 19.9326 4.03383Z" fill="white"/>
</g>
<defs>
<clipPath id="clip0_16_157">
<rect width="35" height="21" fill="white" transform="matrix(-1 0 0 1 35 0)"/>
</clipPath>
</defs>
</svg>
